<svg width="24" height="24" viewBox="0 0 24 24" fill="none" xmlns="http://www.w3.org/2000/svg">
<path d="M8.33333 2H11.6667V8.66667H8.33333C7.44928 8.66667 6.60143 8.31548 5.97631 7.69036C5.35119 7.06523 5 6.21739 5 5.33333C5 4.44928 5.35119 3.60143 5.97631 2.97631C6.60143 2.35119 7.44928 2 8.33333 2Z" fill="#F4511E"/>
<path d="M15 8.66667H11.6666V2H15C15.884 2 16.7319 2.35119 17.357 2.97631C17.9821 3.60143 18.3333 4.44928 18.3333 5.33333C18.3333 6.21739 17.9821 7.06523 17.357 7.69036C16.7319 8.31548 15.884 8.66667 15 8.66667Z" fill="#FF8A65"/>
<path d="M11.6667 12.0007C11.6667 13.8416 13.1591 15.334 15 15.334C16.841 15.334 18.3334 13.8416 18.3334 12.0007C18.3334 10.1597 16.841 8.66732 15 8.66732C13.1591 8.66732 11.6667 10.1597 11.6667 12.0007Z" fill="#29B6F6"/>
<path d="M8.33333 8.66602H11.6667V15.3327H8.33333C7.44928 15.3327 6.60143 14.9815 5.97631 14.3564C5.35119 13.7312 5 12.8834 5 11.9993C5 11.1153 5.35119 10.2674 5.97631 9.64233C6.60143 9.0172 7.44928 8.66602 8.33333 8.66602Z" fill="#7C4DFF"/>
<path d="M8.33333 15.334H11.6667V18.6673C11.6667 19.5514 11.3155 20.3992 10.6904 21.0243C10.0652 21.6495 9.21739 22.0007 8.33333 22.0007C7.44928 22.0007 6.60143 21.6495 5.97631 21.0243C5.35119 20.3992 5 19.5514 5 18.6673C5 17.7833 5.35119 16.9354 5.97631 16.3103C6.60143 15.6852 7.44928 15.334 8.33333 15.334Z" fill="#00E676"/>
</svg>
