<svg width="99" height="40" viewBox="0 0 99 40" fill="none" xmlns="http://www.w3.org/2000/svg">
<g clip-path="url(#clip0_6219_43151)">
<path d="M44.4989 29.2739C44.3033 29.2739 44.1729 29.2087 44.0751 29.0783C43.9773 28.9479 43.9447 28.8175 43.9773 28.6219L47.8241 10.529C47.8567 10.3334 47.9545 10.1704 48.0849 10.04C48.2153 9.90962 48.3783 9.84442 48.5739 9.84442H55.4199C56.4631 9.84442 57.4084 9.97482 58.1908 10.203C58.9732 10.4312 59.6578 10.8224 60.1468 11.3114C60.6358 11.8004 60.9944 12.4198 61.1574 13.1696C61.3204 13.9194 61.3204 14.767 61.1248 15.745C60.701 17.701 59.8208 19.168 58.4842 20.1786C57.1476 21.1566 55.4525 21.6456 53.3661 21.6456H48.2479L46.7809 28.5893C46.7483 28.7849 46.6505 28.9153 46.5201 29.0457C46.3897 29.1761 46.2267 29.2413 45.9985 29.2413H44.4989V29.2739ZM48.7043 19.3962H53.3335C54.6375 19.3962 55.7133 19.1028 56.6261 18.4834C57.5388 17.864 58.1256 16.9838 58.3864 15.8102C58.5494 15.0278 58.5494 14.3758 58.4842 13.8542C58.3864 13.3326 58.093 12.9088 57.5714 12.648C57.0499 12.3546 56.2675 12.2242 55.1917 12.2242H50.2691L48.7043 19.3962Z" fill="#073E67"/>
<path d="M66.6342 29.5672C65.6236 29.5672 64.776 29.3716 64.124 29.013C63.472 28.6544 62.9504 28.1654 62.5918 27.546C62.2332 26.9266 62.0376 26.2094 61.9398 25.427C61.842 24.6446 61.8746 23.797 62.005 22.9168C62.0702 22.6234 62.1028 22.33 62.168 22.1018C62.2332 21.841 62.2984 21.5802 62.3636 21.2542C62.5918 20.374 62.8852 19.559 63.2438 18.7766C63.6024 17.9943 64.0914 17.2771 64.6456 16.6577C65.1998 16.0057 65.8844 15.5167 66.6994 15.1581C67.5144 14.7995 68.4272 14.6039 69.503 14.6039C70.6766 14.6039 71.5894 14.7995 72.1762 15.1907C72.763 15.5819 73.252 16.0709 73.578 16.6577L73.8062 15.5167C73.8388 15.3211 73.9366 15.1907 74.067 15.0603C74.1974 14.9299 74.3604 14.8647 74.5886 14.8647H75.8274C76.023 14.8647 76.1533 14.9299 76.2511 15.0603C76.3489 15.1907 76.3815 15.3211 76.3489 15.5167L73.5454 28.6544C73.5128 28.85 73.415 28.9804 73.2846 29.1108C73.1542 29.2412 72.9912 29.3064 72.7956 29.3064H71.5242C71.3286 29.3064 71.1982 29.2412 71.1004 29.1108C71.0026 28.9804 70.97 28.85 71.0026 28.6544L71.2634 27.4808C70.6766 28.0676 70.0572 28.5566 69.4052 28.9478C68.7532 29.3716 67.8078 29.5672 66.6342 29.5672ZM67.221 27.3178C68.1338 27.3178 68.9488 27.0896 69.6334 26.6658C70.318 26.242 70.8722 25.6878 71.296 25.0358C71.7198 24.3838 72.0132 23.6992 72.1762 23.0146C72.2414 22.7212 72.3392 22.3626 72.4044 21.9388C72.4696 21.515 72.5674 21.1564 72.6 20.863C72.763 20.211 72.763 19.5916 72.6326 18.9396C72.5022 18.3203 72.2414 17.7987 71.785 17.3749C71.3286 16.9837 70.644 16.7555 69.7638 16.7555C68.8836 16.7555 68.1664 16.9511 67.547 17.3749C66.9276 17.7987 66.406 18.3203 66.0148 19.0048C65.6236 19.6894 65.2976 20.4066 65.0694 21.189C65.0042 21.4824 64.939 21.7432 64.8738 22.004C64.8086 22.2648 64.776 22.5256 64.7434 22.819C64.6456 23.6014 64.613 24.3186 64.6456 25.0032C64.7108 25.6878 64.939 26.2094 65.3302 26.6332C65.7214 27.0896 66.3408 27.3178 67.221 27.3178Z" fill="#073E67"/>
<path d="M78.9244 34.5552C78.6962 34.5552 78.5658 34.4574 78.468 34.2618C78.4028 34.0662 78.4354 33.8706 78.5984 33.6098L82.0214 28.2961L79.3156 15.6147C79.283 15.4191 79.3156 15.2561 79.4134 15.0931C79.5112 14.9301 79.6742 14.8649 79.9676 14.8649H81.1738C81.3694 14.8649 81.5324 14.8975 81.6302 14.9953C81.728 15.0931 81.7932 15.1909 81.7932 15.3539L83.9122 25.4599L90.3996 15.3539C90.4648 15.2235 90.5626 15.1257 90.693 15.0279C90.8234 14.9301 90.9864 14.8975 91.182 14.8975H92.6164C92.7794 14.8975 92.9098 14.9627 93.0402 15.1257C93.1706 15.2887 93.1379 15.4517 93.0075 15.7125L81.1086 34.0988C81.0108 34.2292 80.913 34.327 80.7826 34.4248C80.6522 34.5226 80.4892 34.5552 80.2936 34.5552H78.9244Z" fill="#073E67"/>
<path d="M95.1264 13.9202V16.1044H94.7352V13.9202H94.1158V13.5616H95.811V13.9202H95.1264Z" fill="#073E67"/>
<path d="M98.3539 16.1044H97.9627V14.507L97.4085 15.9088H97.1151L96.5609 14.4744V16.1044H96.1697V13.5616H96.5609L97.2455 15.322L97.9301 13.5616H98.3213V16.1044H98.3539Z" fill="#073E67"/>
<path d="M3.91198 29.0139C3.09698 29.1769 2.64059 29.3073 2.34719 29.4051C0.847596 26.6015 0 23.4067 0 20.0163C0 8.96496 8.96496 0 20.0163 0C28.1337 0 35.11 4.82478 38.2722 11.7685L37.8484 11.8011L25.7539 9.61695C25.6561 9.58435 25.5909 9.61695 25.5257 9.68215C25.4605 9.74735 25.4605 9.81255 25.4605 9.91035L26.1125 12.1597C26.1451 12.2575 26.2429 12.3227 26.3407 12.3553L33.2844 12.3879L32.013 12.5183L26.0147 13.4963C22.2005 14.2787 19.7555 14.7025 18.7123 14.7677C18.8101 14.6047 18.8753 14.4743 18.9405 14.3439C19.1035 14.2135 19.3317 14.0831 19.5599 13.9201C20.3423 13.7245 20.4401 13.2355 20.4401 12.9421V12.8117C20.4401 12.6161 20.3749 12.4205 20.2119 12.2249L20.1793 12.1597C20.1467 12.0945 20.0489 12.0619 19.9837 12.0619H19.8859C19.5925 12.0619 19.2991 12.0945 18.9405 12.2249C18.8101 12.2901 18.7123 12.3227 18.6145 12.3879C18.3863 12.0619 17.8647 11.8663 16.8867 11.7033C16.8541 11.7033 16.8215 11.7033 16.7889 11.7033C15.6479 11.8337 14.8655 11.9967 14.4417 12.1923C13.4963 12.4205 12.1271 12.9747 10.3667 13.8549C7.33496 15.6479 5.86797 17.2779 5.86797 18.8101C5.86797 19.2013 5.99837 19.6577 6.29177 20.1141C6.71557 20.7987 7.56316 21.3529 8.96496 21.7441C10.1711 21.9723 11.3773 22.1679 12.5509 22.3635C13.8549 22.6569 14.5721 23.1133 14.7025 23.7327C14.7025 23.7653 14.6699 23.7979 14.6699 23.8305V23.9935C14.6699 24.0913 14.6047 24.3847 14.1483 24.9063C13.4637 25.5583 12.8117 26.0473 12.1597 26.3081L10.5623 27.0905C8.80196 27.8403 6.55257 28.4597 3.91198 29.0139ZM38.7286 12.8443C38.5004 13.0073 38.0114 13.2029 36.9682 13.4963C36.9682 13.4963 36.9356 13.4963 36.903 13.4963C36.1532 13.5941 35.3708 13.6919 34.621 13.8223L27.2209 15.9739C26.4385 17.6691 25.7539 19.2339 25.2323 20.5379L25.1997 20.6031C25.1671 20.6683 24.9389 21.0595 23.8305 23.8631C23.5045 24.5477 23.2437 25.1671 23.0481 25.6235C23.0155 25.7213 22.8525 26.0799 22.1679 27.6447L21.0595 30.22L21.0269 30.2526C20.5379 30.9046 20.2771 31.035 20.0815 31.035C20.0815 31.035 20.0489 31.035 20.0163 31.035C19.9837 31.035 19.9511 31.035 19.9185 31.035C19.5925 30.9046 19.4295 30.7416 19.4295 30.5134C19.4295 29.8289 19.9837 28.2641 21.1573 25.5909C22.2983 22.8851 23.6349 19.6251 25.1345 15.9739L25.1671 15.9413C25.2649 15.7783 25.3627 15.5827 25.4605 15.3871C22.4287 15.9413 20.6031 16.2673 20.0489 16.3325L19.0709 16.4629C19.0057 16.4629 18.9405 16.4629 18.8753 16.4303L18.4841 16.4629C18.0603 16.4629 17.7669 16.3977 17.4735 16.2673C17.0497 16.7237 16.5281 17.2127 15.9087 17.7669C14.9633 18.4841 14.6047 18.5819 14.3765 18.5819H14.2787C13.6267 18.5167 13.2681 18.1581 13.2681 17.6039C13.2681 17.3431 13.3985 17.1801 14.3439 16.6259C15.5175 15.6479 16.1695 14.9959 16.5607 14.5395C16.6585 14.1483 16.8541 13.8223 17.1475 13.4963C17.1149 13.4963 17.0497 13.4963 17.0171 13.4637C15.8109 13.5289 14.2461 14.0505 12.3227 14.9307C11.7685 15.1263 10.8231 15.7131 9.48655 16.6585C8.60636 17.4409 8.05216 18.1581 7.82396 18.7775C7.79136 18.9731 7.75876 19.0383 7.75876 19.0709C7.75876 19.6251 8.86716 20.1141 10.7579 20.3423C13.7571 20.7987 14.5069 21.1899 14.7677 21.4181C15.5175 21.8419 16.1043 22.5591 16.4303 23.4719L16.4629 23.5697V24.3521C16.4629 26.6993 12.9421 28.5901 5.41157 30.3178L3.55338 30.6764C3.55338 30.6764 3.52078 30.6764 3.48818 30.6764C3.42298 30.6764 3.39038 30.6764 3.32518 30.6438L3.16218 30.6764H3.12958C6.68297 36.2836 12.9421 40 20.0489 40C25.5909 40 30.5786 37.7506 34.1972 34.132C37.8158 30.5134 40.0652 25.4931 40.0652 19.9837C40.0652 17.5061 39.5762 15.0611 38.7286 12.8443Z" fill="#1882FF"/>
</g>
<defs>
<clipPath id="clip0_6219_43151">
<rect width="98.3538" height="40" fill="white"/>
</clipPath>
</defs>
</svg>
