<svg width="512" height="512" viewBox="0 0 512 512" fill="none" xmlns="http://www.w3.org/2000/svg">
<rect width="512" height="512" fill="white"/>
<path d="M94.7949 345.837C86.6516 347.401 82.0262 348.704 79.29 349.844C64.404 321.831 55.9675 289.909 55.9675 256C55.9675 145.577 145.512 56 255.968 56C337.108 56 406.912 104.306 438.313 173.687L434.078 174.176L313.036 151.831C312.222 151.635 311.375 151.961 310.788 152.612C310.202 153.231 310.007 154.078 310.267 154.893L316.652 177.335C316.945 178.41 317.922 179.094 318.997 179.127L388.215 179.518L375.544 180.984C375.511 180.984 375.446 181.049 375.446 181.049L315.446 190.951C277.303 198.834 252.808 203.134 242.482 203.655C243.459 202.091 244.176 200.691 244.827 199.322C246.489 198.052 248.573 196.684 251.147 195.088C258.899 193.199 260.072 188.182 260.072 185.349V183.98C260.072 182.091 259.29 180.137 257.824 178.28L257.336 177.694C256.912 177.107 256.163 176.782 255.446 176.782H254.665C251.896 176.782 248.932 177.27 245.316 178.443C244.143 178.964 243.068 179.518 241.994 180.039C239.746 176.912 234.404 174.86 224.665 173.329C224.469 173.264 224.046 173.264 223.85 173.329C212.515 174.534 204.665 176.195 200.365 178.215C190.919 180.365 177.27 185.902 159.779 194.73C129.583 212.547 114.925 228.769 114.925 244.306C114.925 248.345 116.326 252.743 119.16 257.205C123.297 264.111 131.928 269.42 145.707 273.427C157.792 275.772 169.909 277.824 181.472 279.518C194.371 282.352 201.538 287.01 202.808 293.362C202.678 293.655 202.58 293.98 202.58 294.371V295.967C202.58 296.945 202.059 299.811 197.27 305.218C190.56 311.798 183.883 316.521 177.336 319.192L161.31 326.945C143.785 333.915 121.375 340.235 94.7949 345.837ZM442.612 184.013C440.463 185.772 435.609 187.629 425.023 190.625C424.925 190.625 424.599 190.723 424.502 190.723C416.945 191.733 409.355 192.808 401.766 193.98L327.629 215.577C319.779 232.678 313.068 248.02 307.661 261.277L307.238 262.059C306.814 262.743 304.762 266.749 293.492 294.534C290.137 301.505 287.596 307.433 285.805 312.254C285.414 313.362 283.948 316.847 277.042 332.515L265.902 358.378C265.805 358.508 265.707 358.704 265.609 358.866C260.625 365.381 258.117 366.554 256.098 366.814C255.968 366.847 255.707 366.847 255.511 366.847C255.121 366.847 254.73 366.814 254.502 366.717C251.179 365.446 249.681 363.752 249.681 361.44C249.681 354.664 255.186 339.094 266.912 312.384C278.345 285.218 291.7 252.873 306.554 216.163C306.586 216.065 306.749 215.772 306.782 215.674C307.759 213.915 308.671 212.026 309.551 210.039C279.29 215.674 261.147 218.866 255.446 219.453L245.805 220.821C245.023 220.821 244.339 220.723 243.818 220.528L239.909 220.821C235.772 220.821 232.612 220.104 229.974 218.932C225.642 223.459 220.463 228.345 214.339 233.785C204.73 240.853 201.244 241.765 199.029 241.765H198.117C191.7 241.049 188.02 237.368 188.02 232.026C188.02 229.453 189.485 227.726 198.736 222.124C210.463 212.384 217.042 205.772 220.756 201.309C221.668 197.498 223.622 194.013 226.586 190.723C226.196 190.625 225.772 190.625 225.381 190.495C213.394 191.277 197.564 196.228 178.378 205.251C172.873 207.303 163.427 213.134 150.072 222.645C141.407 230.43 135.707 237.596 133.362 243.883C132.873 245.837 132.743 246.619 132.678 246.912C132.678 252.515 143.622 257.238 162.743 259.713C192.84 264.404 200.104 268.15 202.938 270.528C210.593 274.925 216.293 281.928 219.648 291.049L219.844 292.026L219.876 299.811C219.876 323.134 184.795 342.091 109.485 359.322L91.0164 362.873C90.8861 362.938 90.5929 362.938 90.4301 362.938C89.9089 362.938 89.3551 362.84 88.8665 362.678L87.1727 362.873H86.9122C122.384 418.834 184.827 456 256 456C311.244 456 361.212 433.59 397.466 397.401C433.622 361.212 456.033 311.179 456.033 255.935C456 230.625 451.277 206.326 442.612 184.013Z" fill="#1882FF"/>
</svg>
